<svg xmlns="http://www.w3.org/2000/svg" xmlns:xlink="http://www.w3.org/1999/xlink" width="43.96" height="44.05" viewBox="0 0 43.96 44.05">
  <defs>
    <clipPath id="clip-path">
      <rect id="Rectangle_8281" data-name="Rectangle 8281" width="43.96" height="44.05" fill="#f1f5de"/>
    </clipPath>
  </defs>
  <g id="Group_22867" data-name="Group 22867" transform="translate(-25.146 -523.09)">
    <g id="Group_22467" data-name="Group 22467" transform="translate(25.146 523.09)">
      <g id="Group_8986" data-name="Group 8986" clip-path="url(#clip-path)">
        <g id="Group_8985" data-name="Group 8985">
          <g id="Group_8984" data-name="Group 8984" clip-path="url(#clip-path)">
            <g id="Group_8983" data-name="Group 8983" style="mix-blend-mode: multiply;isolation: isolate">
              <g id="Group_8982" data-name="Group 8982">
                <g id="Group_8981" data-name="Group 8981" clip-path="url(#clip-path)">
                  <path id="Path_10545" data-name="Path 10545" d="M43.663,22.572a14.963,14.963,0,0,1-2.646,11.564A22.642,22.642,0,0,1,38.244,37.5C33,42.836,25.139,45.548,17.817,43.2a26.823,26.823,0,0,1-15.6-13.9A28.044,28.044,0,0,1,.644,25.3C-3.514,11.291,13.388,3.156,24.506.263,30.653-1.364,34.9,4.873,37.88,9.635c.9,1.476,1.72,3.006,2.481,4.524s1.463,3.025,2.125,4.457a21.9,21.9,0,0,1,1.177,3.955" transform="translate(0 0)" fill="#f1f5de"/>
                </g>
              </g>
            </g>
          </g>
        </g>
      </g>
    </g>
    <path id="healthcare" d="M13.714,18.734H12.6a.558.558,0,1,0,0,1.116h1.116a.558.558,0,1,0,0-1.116ZM8.136,14.271H7.02a.558.558,0,1,0,0,1.116H8.136a.558.558,0,1,0,0-1.116Zm5.578,0H12.6a.558.558,0,1,0,0,1.116h1.116a.558.558,0,1,0,0-1.116ZM8.136,18.734H7.02a.558.558,0,1,0,0,1.116H8.136a.558.558,0,1,0,0-1.116Zm6.693-10.6H13.714V7.02a.558.558,0,0,0-1.116,0V8.136H11.482a.558.558,0,1,0,0,1.116H12.6v1.116a.527.527,0,0,0,.558.558h0a.527.527,0,0,0,.558-.558V9.251h1.116a.558.558,0,1,0,0-1.116Zm8.925-.558h-3.9V2.558A.527.527,0,0,0,19.291,2H7.02a.527.527,0,0,0-.558.558v5.02h-3.9A.527.527,0,0,0,2,8.136V23.754a.527.527,0,0,0,.558.558h21.2a.527.527,0,0,0,.558-.558V8.136A.527.527,0,0,0,23.754,7.578ZM23.2,23.2H3.116V8.693h3.9a.527.527,0,0,0,.558-.558V3.116H18.734v5.02a.527.527,0,0,0,.558.558h3.9Zm-3.9-4.462H18.176a.558.558,0,1,0,0,1.116h1.116a.558.558,0,1,0,0-1.116Zm-1.116-4.462a.558.558,0,1,0,0,1.116h1.116a.558.558,0,1,0,0-1.116Z" transform="translate(35.434 531.888)" stroke="#000" stroke-width="0.5"/>
  </g>
</svg>