<svg xmlns="http://www.w3.org/2000/svg" xmlns:xlink="http://www.w3.org/1999/xlink" width="45.905" height="45.999" viewBox="0 0 45.905 45.999">
  <defs>
    <clipPath id="clip-path">
      <rect id="Rectangle_8281" data-name="Rectangle 8281" width="45.905" height="45.999" fill="#f7e9e5"/>
    </clipPath>
  </defs>
  <g id="Group_22823" data-name="Group 22823" transform="translate(-290 -524.09)">
    <g id="Group_22475" data-name="Group 22475" transform="translate(290 524.09)">
      <g id="Group_8986" data-name="Group 8986" clip-path="url(#clip-path)">
        <g id="Group_8985" data-name="Group 8985">
          <g id="Group_8984" data-name="Group 8984" clip-path="url(#clip-path)">
            <g id="Group_8983" data-name="Group 8983" style="mix-blend-mode: multiply;isolation: isolate">
              <g id="Group_8982" data-name="Group 8982">
                <g id="Group_8981" data-name="Group 8981" clip-path="url(#clip-path)">
                  <path id="Path_10545" data-name="Path 10545" d="M45.6,23.571c.949,4.171-.372,8.607-2.763,12.075a23.644,23.644,0,0,1-2.9,3.514c-5.473,5.572-13.685,8.4-21.33,5.949A28.01,28.01,0,0,1,2.315,30.591,29.285,29.285,0,0,1,.672,26.42C-3.67,11.79,13.981,3.3,25.591.275c6.418-1.7,10.855,4.814,13.965,9.787.939,1.542,1.8,3.139,2.591,4.724s1.528,3.159,2.219,4.654a22.864,22.864,0,0,1,1.229,4.13" transform="translate(0 0)" fill="#f7e9e5"/>
                </g>
              </g>
            </g>
          </g>
        </g>
      </g>
    </g>
    <path id="doctor-4" d="M20.244,16.891l-.007,0c-.083-.035-.163-.076-.247-.109A7.868,7.868,0,0,0,23,10.591a6.951,6.951,0,0,0-.059-.828A1.243,1.243,0,0,0,23,9.6l.369-3.15a3.95,3.95,0,0,0-3.209-4.339l-1.038-.188a22.247,22.247,0,0,0-7.993,0l-1.039.188A3.95,3.95,0,0,0,6.877,6.453L7.245,9.6a1.243,1.243,0,0,0,.051.16,6.951,6.951,0,0,0-.059.828,7.868,7.868,0,0,0,3.014,6.189c-.084.033-.164.074-.247.109l-.007,0a13.071,13.071,0,0,0-7.93,10.639,1.314,1.314,0,1,0,2.612.285,10.444,10.444,0,0,1,5.54-8.127l3.972,3.972a1.314,1.314,0,0,0,1.858,0l3.972-3.972a10.444,10.444,0,0,1,5.54,8.127,1.314,1.314,0,0,0,1.3,1.172,1.378,1.378,0,0,0,.145-.008,1.314,1.314,0,0,0,1.164-1.449,13.071,13.071,0,0,0-7.931-10.639ZM9.487,6.146A1.317,1.317,0,0,1,10.556,4.7l1.038-.188a19.618,19.618,0,0,1,7.053,0l1.038.188a1.317,1.317,0,0,1,1.07,1.445l-.234,1.989H9.721Zm5.634,14.73-2.168-2.169a10.315,10.315,0,0,1,4.336,0Zm0-5.027a5.262,5.262,0,0,1-5.253-5.085H20.374a5.262,5.262,0,0,1-5.253,5.085Z" transform="translate(299.502 530.808)"/>
  </g>
</svg>